<svg xmlns="http://www.w3.org/2000/svg" xmlns:xlink="http://www.w3.org/1999/xlink" width="1240" height="2203.406" viewBox="0 0 1240 2203.406">
  <defs>
    <clipPath id="clip-path">
      <rect id="Rectángulo_39033" data-name="Rectángulo 39033" width="964.906" height="1367.522" transform="translate(0 -20.203)" fill="none"/>
    </clipPath>
  </defs>
  <g id="Grupo_144395" data-name="Grupo 144395" transform="translate(-180 -1465)">
    <rect id="Rectángulo_38994" data-name="Rectángulo 38994" width="230" height="108" rx="10" transform="translate(685 1891)" fill="#ffa726"/>
    <rect id="Rectángulo_38995" data-name="Rectángulo 38995" width="230" height="67" rx="10" transform="translate(685 1651)" fill="#ffd99d"/>
    <rect id="Rectángulo_38998" data-name="Rectángulo 38998" width="295" height="108" rx="10" transform="translate(285 1889)" fill="#ffd99d"/>
    <rect id="Rectángulo_39003" data-name="Rectángulo 39003" width="226" height="149" rx="10" transform="translate(425 2577)" fill="#ffd99d"/>
    <rect id="Rectángulo_39007" data-name="Rectángulo 39007" width="295" height="116" rx="10" transform="translate(180 3102)" fill="#ffd99d"/>
    <rect id="Rectángulo_39011" data-name="Rectángulo 39011" width="295" height="185" rx="10" transform="translate(180 3338.406)" fill="#fff4c6"/>
    <rect id="Rectángulo_39012" data-name="Rectángulo 39012" width="295" height="257" rx="10" transform="translate(495 3338.406)" fill="#fff4c6"/>
    <rect id="Rectángulo_39013" data-name="Rectángulo 39013" width="295" height="330" rx="10" transform="translate(810 3338.406)" fill="#fff4c6"/>
    <rect id="Rectángulo_39014" data-name="Rectángulo 39014" width="295" height="257" rx="10" transform="translate(1125 3338.406)" fill="#fff4c6"/>
    <rect id="Rectángulo_39008" data-name="Rectángulo 39008" width="295" height="116" rx="10" transform="translate(495 3102)" fill="#ffd99d"/>
    <rect id="Rectángulo_39009" data-name="Rectángulo 39009" width="295" height="116" rx="10" transform="translate(810 3102)" fill="#ffd99d"/>
    <rect id="Rectángulo_39010" data-name="Rectángulo 39010" width="295" height="116" rx="10" transform="translate(1125 3102)" fill="#ffd99d"/>
    <rect id="Rectángulo_39004" data-name="Rectángulo 39004" width="226" height="149" rx="10" transform="translate(950 2578)" fill="#ffd99d"/>
    <rect id="Rectángulo_39000" data-name="Rectángulo 39000" width="295" height="98" rx="10" transform="translate(285 2051)" fill="#ffd99d"/>
    <rect id="Rectángulo_38999" data-name="Rectángulo 38999" width="295" height="107" rx="10" transform="translate(1020 1891)" fill="#ffd99d"/>
    <rect id="Rectángulo_39001" data-name="Rectángulo 39001" width="295" height="346" rx="10" transform="translate(1020 2066)" fill="#b1f7fd"/>
    <rect id="Rectángulo_39002" data-name="Rectángulo 39002" width="335" height="191" rx="10" transform="translate(265 2273)" fill="#b1f7fd"/>
    <rect id="Rectángulo_38996" data-name="Rectángulo 38996" width="400" height="253" rx="10" transform="translate(180 1465)" fill="#b1f7fd"/>
    <rect id="Rectángulo_38997" data-name="Rectángulo 38997" width="400" height="179" rx="10" transform="translate(1020 1539)" fill="#b1f7fd"/>
    <rect id="Rectángulo_39005" data-name="Rectángulo 39005" width="295" height="189" rx="10" transform="translate(915 2767)" fill="#b1f7fd"/>
    <rect id="Rectángulo_39006" data-name="Rectángulo 39006" width="295" height="189" rx="10" transform="translate(390 2767)" fill="#b1f7fd"/>
    <text id="Posproducción_Epub" data-name="Posproducción Epub" transform="translate(719 1951)" fill="#12263f" font-size="18" font-family="Roboto-Black, Roboto" font-weight="800"><tspan x="0" y="0">Posproducción Epub</tspan></text>
    <text id="Introducción" transform="translate(744 1693)" fill="#12263f" font-size="20" font-family="Roboto-Regular, Roboto"><tspan x="0" y="0">Introducción</tspan></text>
    <text id="Generación_de_documentos" data-name="Generación de
documentos" transform="translate(435 1937)" fill="#12263f" font-size="20" font-family="Roboto-Regular, Roboto"><tspan x="-63.848" y="0">Generación de</tspan><tspan x="-55.698" y="28">documentos</tspan></text>
    <text id="Diagnóstico_y_Corrección_de_Funcionamiento" data-name="Diagnóstico y
Corrección de
 Funcionamiento" transform="translate(538 2632)" fill="#12263f" font-size="20" font-family="Roboto-Regular, Roboto"><tspan x="-60.249" y="0">Diagnóstico y</tspan><tspan x="-61.807" y="28">Corrección de</tspan><tspan x="-74.126" y="56" xml:space="preserve"> Funcionamiento</tspan></text>
    <text id="Exportación_y_Salida_de_archivos" data-name="Exportación y 
Salida de archivos" transform="translate(643 3154)" fill="#12263f" font-size="20" font-family="Roboto-Regular, Roboto"><tspan x="-62.852" y="0">Exportación y </tspan><tspan x="-80.723" y="28">Salida de archivos</tspan></text>
    <text id="Visualización_y_Validación_de_los_archivos" data-name="Visualización y
Validación de los archivos" transform="translate(328 3154)" fill="#12263f" font-size="20" font-family="Roboto-Regular, Roboto"><tspan x="-66.235" y="0">Visualización y</tspan><tspan x="-115.571" y="28">Validación de los archivos</tspan></text>
    <text id="Publicación_De_contenido" data-name="Publicación
De contenido" transform="translate(958 3154)" fill="#12263f" font-size="20" font-family="Roboto-Regular, Roboto"><tspan x="-51.841" y="0">Publicación</tspan><tspan x="-58.638" y="28">De contenido</tspan></text>
    <text id="Pruebas_y_Actualizaciones" data-name="Pruebas y
Actualizaciones" transform="translate(1264 3156)" fill="#12263f" font-size="20" font-family="Roboto-Regular, Roboto"><tspan x="-43.916" y="0">Pruebas y</tspan><tspan x="-70.562" y="28">Actualizaciones</tspan></text>
    <text id="Rutinas_de_Comprobación_de_Errores" data-name="Rutinas de 
Comprobación de
Errores" transform="translate(1063 2633)" fill="#12263f" font-size="20" font-family="Roboto-Regular, Roboto"><tspan x="-49.365" y="0">Rutinas de </tspan><tspan x="-78.921" y="28">Comprobación de</tspan><tspan x="-31.895" y="56">Errores</tspan></text>
    <text id="Composición_de_texto_y_página" data-name="Composición de
texto y página" transform="translate(433 2094)" fill="#12263f" font-size="20" font-family="Roboto-Regular, Roboto"><tspan x="-72.168" y="0">Composición de</tspan><tspan x="-62.119" y="28">texto y página</tspan></text>
    <text id="Formatos_de_archivo_y_Aplicabilidad" data-name="Formatos de archivo y 
Aplicabilidad" transform="translate(1158 1939)" fill="#12263f" font-size="20" font-family="Roboto-Regular, Roboto"><tspan x="-100.688" y="0">Formatos de archivo y </tspan><tspan x="-57.271" y="28">Aplicabilidad</tspan></text>
    <text id="Epub_MOBI_PDF_CBR_CBZ_AZW_FB2_DOC_HTML_RTF_TXT" data-name="Epub 
MOBI
PDF
CBR / CBZ
AZW
FB2
DOC
HTML
RTF
TXT" transform="translate(1077 2121)" fill="#12263f" font-size="20" font-family="Roboto-Regular, Roboto"><tspan x="0" y="0">Epub </tspan><tspan x="0" y="28">MOBI</tspan><tspan x="0" y="56">PDF</tspan><tspan x="0" y="84">CBR / CBZ</tspan><tspan x="0" y="112">AZW</tspan><tspan x="0" y="140">FB2</tspan><tspan x="0" y="168">DOC</tspan><tspan x="0" y="196">HTML</tspan><tspan x="0" y="224">RTF</tspan><tspan x="0" y="252">TXT</tspan></text>
    <text id="Concepto" transform="translate(758 1819)" fill="#12263f" font-size="20" font-family="Roboto-Regular, Roboto"><tspan x="0" y="0">Concepto</tspan></text>
    <text id="Concepto-2" data-name="Concepto" transform="translate(1125 1819)" fill="#12263f" font-size="20" font-family="Roboto-Regular, Roboto"><tspan x="0" y="0">Concepto</tspan></text>
    <text id="Concepto-3" data-name="Concepto" transform="translate(390 1819)" fill="#12263f" font-size="20" font-family="Roboto-Regular, Roboto"><tspan x="0" y="0">Concepto</tspan></text>
    <text id="Elementos" transform="translate(390 2207)" fill="#12263f" font-size="20" font-family="Roboto-Regular, Roboto"><tspan x="0" y="0">Elementos</tspan></text>
    <text id="Elementos-2" data-name="Elementos" transform="translate(281 3257)" fill="#12263f" font-size="20" font-family="Roboto-Regular, Roboto"><tspan x="0" y="0">Elementos</tspan></text>
    <text id="Concepto-4" data-name="Concepto" transform="translate(289 3036)" fill="#12263f" font-size="20" font-family="Roboto-Regular, Roboto"><tspan x="0" y="0">Concepto</tspan></text>
    <text id="Elementos-3" data-name="Elementos" transform="translate(596 3257)" fill="#12263f" font-size="20" font-family="Roboto-Regular, Roboto"><tspan x="0" y="0">Elementos</tspan></text>
    <text id="Concepto-5" data-name="Concepto" transform="translate(600 3045)" fill="#12263f" font-size="20" font-family="Roboto-Regular, Roboto"><tspan x="0" y="0">Concepto</tspan></text>
    <text id="Elementos-4" data-name="Elementos" transform="translate(911 3257)" fill="#12263f" font-size="20" font-family="Roboto-Regular, Roboto"><tspan x="0" y="0">Elementos</tspan></text>
    <text id="Concepto-6" data-name="Concepto" transform="translate(911 3036)" fill="#12263f" font-size="20" font-family="Roboto-Regular, Roboto"><tspan x="0" y="0">Concepto</tspan></text>
    <text id="Elementos-5" data-name="Elementos" transform="translate(1230 3257)" fill="#12263f" font-size="20" font-family="Roboto-Regular, Roboto"><tspan x="0" y="0">Elementos</tspan></text>
    <text id="Concepto-7" data-name="Concepto" transform="translate(1230 3036)" fill="#12263f" font-size="20" font-family="Roboto-Regular, Roboto"><tspan x="0" y="0">Concepto</tspan></text>
    <text id="El_entorno_digital_actual_ha_definido_un_paradigma_en_el_cual_hay_muchas_y_diferentes_opciones_disponibles_para_la_creación_digital_cada_una_de_las_cuales_son_características_particulares_propias_que_determinan_no_solo_la_forma_del_objeto_digital_que_se_c" data-name="El entorno digital actual ha definido un paradigma en el cual hay muchas y diferentes opciones disponibles para la creación digital, cada una de las cuales son características particulares propias que determinan no solo la forma del objeto digital que se c" transform="translate(207 1507)" fill="#12263f" font-size="16" font-family="Roboto-Regular, Roboto"><tspan x="0" y="17">El entorno digital actual ha definido un </tspan><tspan x="0" y="39">paradigma en el cual hay muchas y diferentes </tspan><tspan x="0" y="61">opciones disponibles para la creación digital, </tspan><tspan x="0" y="83">cada una de las cuales son características </tspan><tspan x="0" y="105">particulares propias que determinan no solo la </tspan><tspan x="0" y="127">forma del objeto digital que se crea, sino </tspan><tspan x="0" y="149">también sus posibilidades de publicación y de </tspan><tspan x="0" y="171">comercialización digital.</tspan></text>
    <text id="Capítulos_y_secciones_Estilo_del_texto_Tipo_de_letra_Espaciado_y_saltos_de_línea_Listas_Notas_al_pie_hipervínculos_y_referencias_Imágenes_y_objetos" data-name="Capítulos y secciones 
Estilo del texto
Tipo de letra   
Espaciado y saltos de línea
Listas
Notas al pie, hipervínculos y referencias 
Imágenes y objetos" transform="translate(285 2293)" fill="#12263f" font-size="16" font-family="Roboto-Regular, Roboto"><tspan x="0" y="17">Capítulos y secciones </tspan><tspan x="0" y="39">Estilo del texto</tspan><tspan x="0" y="61" xml:space="preserve">Tipo de letra   </tspan><tspan x="0" y="83">Espaciado y saltos de línea</tspan><tspan x="0" y="105">Listas</tspan><tspan x="0" y="127">Notas al pie, hipervínculos y referencias </tspan><tspan x="0" y="149">Imágenes y objetos</tspan></text>
    <text id="Capítulos_y_secciones_Estilo_del_texto_Tipo_de_letra_1.Compatibilidad_con_navegación_2.Generación_de_CSS_para_un_libro_3.Compatibilidad_con_hipervínculos_4.Exportación_a_Epub" data-name="Capítulos y secciones 
Estilo del texto
Tipo de letra   
1.Compatibilidad con navegación
2.Generación de CSS para un libro
3.Compatibilidad con hipervínculos
4.Exportación a Epub" transform="translate(521 3379.406)" fill="#12263f" font-size="16" font-family="Roboto-Regular, Roboto"><tspan x="0" y="17">Capítulos y secciones </tspan><tspan x="0" y="39">Estilo del texto</tspan><tspan x="0" y="61" xml:space="preserve">Tipo de letra   </tspan><tspan x="0" y="83">1.Compatibilidad con navegación</tspan><tspan x="0" y="105">2.Generación de CSS para un libro</tspan><tspan x="0" y="127">3.Compatibilidad con </tspan><tspan x="0" y="149">hipervínculos</tspan><tspan x="0" y="171">4.Exportación a Epub</tspan></text>
    <text id="Modelos_clásicos_Venta_directa_ejemplares_Acceso_por_suscripción_Ingresos_por_publicidad_Modelos_digitales_Freemium_premium_Actualización_permanente_Open_Acces_Financiación_colectiva_Contenidos_parciales" data-name="Modelos clásicos
Venta directa ejemplares
Acceso por suscripción
Ingresos por publicidad

Modelos digitales
Freemium/premium
Actualización permanente
Open Acces
Financiación colectiva
Contenidos parciales" transform="translate(836 3379.406)" fill="#12263f" font-size="16" font-family="Roboto-Bold, Roboto" font-weight="700"><tspan x="0" y="17">Modelos clásicos</tspan><tspan font-family="Roboto-Regular, Roboto" font-weight="400"><tspan x="0" y="39">Venta directa ejemplares</tspan><tspan x="0" y="61">Acceso por suscripción</tspan><tspan x="0" y="83">Ingresos por publicidad</tspan><tspan x="0" y="105"></tspan></tspan><tspan x="0" y="127">Modelos digitales</tspan><tspan font-family="Roboto-Italic, Roboto" font-weight="400" font-style="italic"><tspan x="0" y="149">Freemium/premium</tspan></tspan><tspan font-family="Roboto-Regular, Roboto" font-weight="400"><tspan x="0" y="171">Actualización permanente</tspan><tspan x="0" y="193">Open Acces</tspan><tspan x="0" y="215">Financiación colectiva</tspan><tspan x="0" y="237">Contenidos parciales</tspan></tspan></text>
    <text id="_1.Biblioteca._2.Seleccione_Editar_detalles_del_eBook_o_Editar_detalles_del_libro_de_tapa_blanda._3.Edite_los_detalles_necesarios._4.Haga_clic_en_Guardar_y_continuar._Al_hacerlo_se_redirigirá_a_la_página_Contenido." data-name="1.Biblioteca.
2.Seleccione Editar detalles del eBook o Editar detalles del libro de tapa blanda.
3.Edite los detalles necesarios.
4.Haga clic en Guardar y continuar. Al hacerlo se  redirigirá a la página Contenido." transform="translate(1151 3379.406)" fill="#12263f" font-size="16" font-family="Roboto-Regular, Roboto"><tspan x="0" y="17">1.Biblioteca.</tspan><tspan x="0" y="39">2.Seleccione Editar detalles del </tspan><tspan x="0" y="61">eBook o Editar detalles del libro </tspan><tspan x="0" y="83">de tapa blanda.</tspan><tspan x="0" y="105">3.Edite los detalles necesarios.</tspan><tspan x="0" y="127">4.Haga clic en Guardar y </tspan><tspan x="0" y="149" xml:space="preserve">continuar. Al hacerlo se  redirigirá </tspan><tspan x="0" y="171">a la página Contenido.</tspan></text>
    <text id="_1.Estándares_del_formato_2.Corregir_los_archivos_3.Comprobación_del_documento_Epub" data-name="1.Estándares del formato
2.Corregir los archivos
3.Comprobación del documento Epub" transform="translate(206 3381.406)" fill="#12263f" font-size="16" font-family="Roboto-Regular, Roboto"><tspan x="0" y="17">1.Estándares del formato</tspan><tspan x="0" y="39">2.Corregir los archivos</tspan><tspan x="0" y="61">3.Comprobación del documento </tspan><tspan x="0" y="83">Epub</tspan></text>
    <text id="La_elección_del_formato_de_una_publicación_se_determina_previo_a_la_producción_del_producto_y_se_debe_plantear_en_el_objetivo_del_proyecto." data-name="La elección del formato de una publicación se determina previo a la producción del producto y se debe plantear en el objetivo del proyecto." transform="translate(1048 1600)" fill="#12263f" font-size="16" font-family="Roboto-Regular, Roboto"><tspan x="0" y="17">La elección del formato de una publicación se </tspan><tspan x="0" y="39">determina previo a la producción del producto y </tspan><tspan x="0" y="61">se debe plantear en el objetivo del proyecto.</tspan></text>
    <text id="Analizar_Encontrados_los_errores_Arreglar_los_errores_Epub_Checker_Guardar_y_publicar" data-name="Analizar 
Encontrados los errores
Arreglar los errores 
Epub Checker 
Guardar y publicar" transform="translate(965 2807)" fill="#12263f" font-size="16" font-family="Roboto-Regular, Roboto"><tspan x="0" y="17">Analizar </tspan><tspan x="0" y="39">Encontrados los errores</tspan><tspan x="0" y="61">Arreglar los errores </tspan><tspan x="0" y="83">Epub Checker </tspan><tspan x="0" y="105">Guardar y publicar</tspan></text>
    <text id="Ya_realizada_la_revisión_ardua_se_lleva_a_cabo_un_diagnóstico_del_funcionamiento_es_importante_continuar_con_la_recolección_de_información." data-name="Ya realizada la revisión ardua se lleva a cabo un diagnóstico del funcionamiento, es importante continuar con la recolección de información." transform="translate(419 2807)" fill="#12263f" font-size="16" font-family="Roboto-Regular, Roboto"><tspan x="0" y="17">Ya realizada la revisión ardua se </tspan><tspan x="0" y="39">lleva a cabo un diagnóstico del </tspan><tspan x="0" y="61">funcionamiento, es importante </tspan><tspan x="0" y="83">continuar con la recolección de </tspan><tspan x="0" y="105">información.</tspan></text>
    <g id="Grupo_144390" data-name="Grupo 144390" transform="translate(318 1732.478)">
      <g id="Grupo_144389" data-name="Grupo 144389" clip-path="url(#clip-path)">
        <path id="Trazado_152184" data-name="Trazado 152184" d="M478.586,698.373h-2v-58.8a17.2,17.2,0,0,0-17.184-17.18H281.182a19.211,19.211,0,0,1-19.188-19.19V131.6h2V603.2a17.2,17.2,0,0,0,17.184,17.186H459.4a19.21,19.21,0,0,1,19.188,19.184Z" transform="translate(263.1 132.154)" fill="#00afc3"/>
        <path id="Trazado_152185" data-name="Trazado 152185" d="M363.841,409.153l11.466,3.026,11.466-3.026-11.466,20.2Z" transform="translate(365.377 410.88)" fill="#00afc3"/>
        <path id="Trazado_152186" data-name="Trazado 152186" d="M114.922,698.373h-2v-58.8a19.21,19.21,0,0,1,19.188-19.184H310.322A17.2,17.2,0,0,0,327.506,603.2V131.6h2V603.2a19.211,19.211,0,0,1-19.188,19.19H132.106a17.2,17.2,0,0,0-17.184,17.18Z" transform="translate(113.395 132.154)" fill="#00afc3"/>
        <path id="Trazado_152187" data-name="Trazado 152187" d="M130.629,409.153l-11.466,3.026L107.7,409.153l11.466,20.2Z" transform="translate(108.151 410.88)" fill="#00afc3"/>
        <path id="Trazado_152188" data-name="Trazado 152188" d="M393.043,1154.578h-2V1142.1a11.1,11.1,0,0,0-11.089-11.087H253.429a13.108,13.108,0,0,1-13.094-13.094v-985.5h2v985.5A11.1,11.1,0,0,0,253.429,1129h126.52a13.109,13.109,0,0,1,13.094,13.091Z" transform="translate(241.349 132.976)" fill="#00afc3"/>
        <path id="Trazado_152189" data-name="Trazado 152189" d="M167.146,1154.578h-2V1142.1A13.109,13.109,0,0,1,178.236,1129h126.52a11.1,11.1,0,0,0,11.089-11.089v-985.5h2v985.5a13.108,13.108,0,0,1-13.094,13.094H178.236a11.1,11.1,0,0,0-11.089,11.087Z" transform="translate(165.839 132.976)" fill="#00afc3"/>
        <path id="Trazado_152190" data-name="Trazado 152190" d="M7.225,648.136h-2A18.5,18.5,0,0,1,23.7,629.661H338.832v2H23.7A16.49,16.49,0,0,0,7.225,648.136" transform="translate(5.243 632.319)" fill="#00afc3"/>
        <path id="Trazado_152191" data-name="Trazado 152191" d="M643.373,648.136h-2A16.491,16.491,0,0,0,624.9,631.665H309.762v-2H624.9a18.5,18.5,0,0,1,18.475,18.475" transform="translate(311.07 632.319)" fill="#00afc3"/>
        <rect id="Rectángulo_39015" data-name="Rectángulo 39015" width="92.823" height="2.004" transform="translate(272.468 205.964)" fill="#00afc3"/>
        <rect id="Rectángulo_39016" data-name="Rectángulo 39016" width="92.823" height="2.004" transform="translate(595.717 205.964)" fill="#00afc3"/>
        <rect id="Rectángulo_39017" data-name="Rectángulo 39017" width="2.004" height="46.412" transform="translate(844.791 263.755)" fill="#00afc3"/>
        <rect id="Rectángulo_39018" data-name="Rectángulo 39018" width="2.004" height="46.412" transform="translate(844.791 109.775)" fill="#00afc3"/>
        <rect id="Rectángulo_39019" data-name="Rectángulo 39019" width="2.004" height="46.412" transform="translate(117.485 109.775)" fill="#00afc3"/>
        <rect id="Rectángulo_39020" data-name="Rectángulo 39020" width="2.004" height="46.412" transform="translate(481.139 109.775)" fill="#00afc3"/>
        <rect id="Rectángulo_39021" data-name="Rectángulo 39021" width="2.004" height="46.412" transform="translate(117.485 263.755)" fill="#00afc3"/>
        <rect id="Rectángulo_39022" data-name="Rectángulo 39022" width="2.004" height="36.038" transform="translate(117.485 414.457)" fill="#00afc3"/>
        <rect id="Rectángulo_39023" data-name="Rectángulo 39023" width="2.004" height="36.038" transform="translate(117.485 485.988)" fill="#00afc3"/>
        <path id="Trazado_152192" data-name="Trazado 152192" d="M76.331,255.422l-11.466,3.026L53.4,255.422l11.466,20.2Z" transform="translate(53.624 256.5)" fill="#00afc3"/>
        <path id="Trazado_152205" data-name="Trazado 152205" d="M76.331,255.422l-11.466,3.026L53.4,255.422l11.466,20.2Z" transform="translate(53.624 34.543)" fill="#00afc3"/>
        <rect id="Rectángulo_39024" data-name="Rectángulo 39024" width="2.004" height="18.019" transform="translate(214.844 993.244)" fill="#00afc3"/>
        <rect id="Rectángulo_39035" data-name="Rectángulo 39035" width="2.004" height="18.019" transform="translate(739.743 993.244)" fill="#00afc3"/>
        <path id="Trazado_152193" data-name="Trazado 152193" d="M124.908,513.137l-11.466,3.026-11.466-3.026,11.466,20.2Z" transform="translate(102.406 495.1)" fill="#00afc3"/>
        <path id="Trazado_152206" data-name="Trazado 152206" d="M124.908,513.137l-11.466,3.026-11.466-3.026,11.466,20.2Z" transform="translate(627.305 495.1)" fill="#00afc3"/>
        <rect id="Rectángulo_39026" data-name="Rectángulo 39026" width="2.004" height="36.036" transform="translate(952.438 1314.31)" fill="#00afc3"/>
        <path id="Trazado_152195" data-name="Trazado 152195" d="M492.927,672.241l-11.466,3.026-11.466-3.026,11.466,20.2Z" transform="translate(471.979 675.078)" fill="#00afc3"/>
        <rect id="Rectángulo_39027" data-name="Rectángulo 39027" width="2.004" height="36.036" transform="translate(632.388 1314.31)" fill="#00afc3"/>
        <path id="Trazado_152196" data-name="Trazado 152196" d="M333.24,672.241l-11.466,3.026-11.466-3.026,11.466,20.2Z" transform="translate(311.617 675.078)" fill="#00afc3"/>
        <rect id="Rectángulo_39028" data-name="Rectángulo 39028" width="2.004" height="36.036" transform="translate(330.981 1314.31)" fill="#00afc3"/>
        <path id="Trazado_152197" data-name="Trazado 152197" d="M182.854,672.241l-11.466,3.026-11.466-3.026,11.466,20.2Z" transform="translate(160.597 675.078)" fill="#00afc3"/>
        <rect id="Rectángulo_39029" data-name="Rectángulo 39029" width="2.004" height="36.036" transform="translate(10.464 1314.31)" fill="#00afc3"/>
        <path id="Trazado_152198" data-name="Trazado 152198" d="M22.933,672.241l-11.466,3.026L0,672.241l11.466,20.2Z" transform="translate(0 675.078)" fill="#00afc3"/>
        <path id="Trazado_152199" data-name="Trazado 152199" d="M439.218,149.716l-11.466,3.026-11.466-3.026,11.466,20.2Z" transform="translate(418.043 150.348)" fill="#00afc3"/>
        <rect id="Rectángulo_39030" data-name="Rectángulo 39030" width="2.004" height="46.412" transform="translate(844.791 10.101)" fill="#00afc3"/>
        <path id="Trazado_152200" data-name="Trazado 152200" d="M416.285,20.2l11.466-3.026L439.218,20.2,427.751,0Z" transform="translate(418.042 0)" fill="#00afc3"/>
        <rect id="Rectángulo_39031" data-name="Rectángulo 39031" width="2.004" height="46.412" transform="translate(481.684 10.101)" fill="#00afc3"/>
        <path id="Trazado_152201" data-name="Trazado 152201" d="M235.114,20.2l11.466-3.026L258.046,20.2,246.58,0Z" transform="translate(236.106 0)" fill="#00afc3"/>
        <rect id="Rectángulo_39032" data-name="Rectángulo 39032" width="2.004" height="46.412" transform="translate(117.485 10.101)" fill="#00afc3"/>
        <path id="Trazado_152202" data-name="Trazado 152202" d="M53.4,20.2l11.466-3.026L76.33,20.2,64.864,0Z" transform="translate(53.623 0)" fill="#00afc3"/>
        <path id="Trazado_152203" data-name="Trazado 152203" d="M334.826,97.544l3.026,11.466-3.026,11.466,20.2-11.466Z" transform="translate(336.24 97.956)" fill="#00afc3"/>
        <path id="Trazado_152204" data-name="Trazado 152204" d="M154.39,120.477l-3.026-11.466,3.026-11.466-20.2,11.466Z" transform="translate(134.754 97.957)" fill="#00afc3"/>
        <rect id="Rectángulo_39034" data-name="Rectángulo 39034" width="964.906" height="1367.522" transform="translate(524.899 -20.203)" fill="none"/>
      </g>
    </g>
    <path id="Trazado_152207" data-name="Trazado 152207" d="M124.908,513.137l-11.466,3.026-11.466-3.026,11.466,20.2Z" transform="translate(216.024 2556.559)" fill="#00afc3"/>
    <path id="Trazado_152208" data-name="Trazado 152208" d="M124.908,513.137l-11.466,3.026-11.466-3.026,11.466,20.2Z" transform="translate(536.092 2556.559)" fill="#00afc3"/>
    <path id="Trazado_152209" data-name="Trazado 152209" d="M124.908,513.137l-11.466,3.026-11.466-3.026,11.466,20.2Z" transform="translate(838.059 2556.559)" fill="#00afc3"/>
    <path id="Trazado_152210" data-name="Trazado 152210" d="M124.908,513.137l-11.466,3.026-11.466-3.026,11.466,20.2Z" transform="translate(1158.126 2556.559)" fill="#00afc3"/>
    <g id="Grupo_144391" data-name="Grupo 144391" transform="translate(0.034 1.602)">
      <line id="Línea_107" data-name="Línea 107" y2="38" transform="translate(327.5 3272.5)" fill="none" stroke="#00afc3" stroke-width="2"/>
      <path id="Trazado_152211" data-name="Trazado 152211" d="M124.908,513.137l-11.466,3.026-11.466-3.026,11.466,20.2Z" transform="translate(214.024 2787.559)" fill="#00afc3"/>
    </g>
    <g id="Grupo_144392" data-name="Grupo 144392" transform="translate(317.067 1.602)">
      <line id="Línea_107-2" data-name="Línea 107" y2="38" transform="translate(327.5 3272.5)" fill="none" stroke="#00afc3" stroke-width="2"/>
      <path id="Trazado_152211-2" data-name="Trazado 152211" d="M124.908,513.137l-11.466,3.026-11.466-3.026,11.466,20.2Z" transform="translate(214.024 2787.559)" fill="#00afc3"/>
    </g>
    <g id="Grupo_144393" data-name="Grupo 144393" transform="translate(626.068 1.602)">
      <line id="Línea_107-3" data-name="Línea 107" y2="38" transform="translate(327.5 3272.5)" fill="none" stroke="#00afc3" stroke-width="2"/>
      <path id="Trazado_152211-3" data-name="Trazado 152211" d="M124.908,513.137l-11.466,3.026-11.466-3.026,11.466,20.2Z" transform="translate(214.024 2787.559)" fill="#00afc3"/>
    </g>
    <g id="Grupo_144394" data-name="Grupo 144394" transform="translate(943.102 1.602)">
      <line id="Línea_107-4" data-name="Línea 107" y2="38" transform="translate(327.5 3272.5)" fill="none" stroke="#00afc3" stroke-width="2"/>
      <path id="Trazado_152211-4" data-name="Trazado 152211" d="M124.908,513.137l-11.466,3.026-11.466-3.026,11.466,20.2Z" transform="translate(214.024 2787.559)" fill="#00afc3"/>
    </g>
  </g>
</svg>
