<svg xmlns="http://www.w3.org/2000/svg" xmlns:xlink="http://www.w3.org/1999/xlink" width="69.927" height="65.029" viewBox="0 0 69.927 65.029">
  <defs>
    <linearGradient id="linear-gradient" x1="-0.58" y1="1.588" x2="0.671" y2="0.328" gradientUnits="objectBoundingBox">
      <stop offset="0" stop-color="#26ccda"/>
      <stop offset="1" stop-color="#054f56"/>
    </linearGradient>
    <linearGradient id="linear-gradient-2" x1="0.353" y1="0.375" x2="1.812" y2="1.617" gradientUnits="objectBoundingBox">
      <stop offset="0" stop-color="#26ccda"/>
      <stop offset="1" stop-color="#10909b"/>
    </linearGradient>
    <linearGradient id="linear-gradient-3" x1="1.14" y1="-0.152" x2="-0.162" y2="1.174" gradientUnits="objectBoundingBox">
      <stop offset="0" stop-color="#26ccda"/>
      <stop offset="1" stop-color="#18868f"/>
    </linearGradient>
    <linearGradient id="linear-gradient-4" x1="0.289" y1="0.206" x2="0.786" y2="0.899" gradientUnits="objectBoundingBox">
      <stop offset="0" stop-color="#fff"/>
      <stop offset="1" stop-color="#e07612"/>
    </linearGradient>
  </defs>
  <g id="Grupo_134915" data-name="Grupo 134915" transform="translate(17.825 -177.305)">
    <path id="Trazado_115638" data-name="Trazado 115638" d="M53.451,229.41l-34.08,17.956L-5.994,239.4l34.08-17.958Z" transform="translate(-1.349 -5.033)" fill="url(#linear-gradient)"/>
    <path id="Trazado_115639" data-name="Trazado 115639" d="M26.737,216.407l-34.08,17.958-10.482-39.1L16.255,177.3Z" transform="translate(0 0)" fill="url(#linear-gradient-2)"/>
    <g id="Grupo_82127" data-name="Grupo 82127" transform="translate(16.255 177.305)">
      <path id="Trazado_115640" data-name="Trazado 115640" d="M46.006,185.273l10.482,39.1-25.364-7.97L20.642,177.3Z" transform="translate(-20.642 -177.305)" fill="url(#linear-gradient-3)"/>
    </g>
    <path id="Trazado_115641" data-name="Trazado 115641" d="M21.222,179.469l9.968,37.185S26.711,193.745,21.222,179.469Z" transform="translate(-4.453 -0.247)" fill="url(#linear-gradient-4)" style="mix-blend-mode: overlay;isolation: isolate"/>
  </g>
</svg>
